<svg width="267" height="343" viewBox="0 0 267 343" fill="none" xmlns="http://www.w3.org/2000/svg">
<g id="car">
<path id="Vector 1" d="M64.0031 250.298C63.8766 266.121 68.9094 294.276 71.4417 306.375C77.9635 322.201 174.243 324.766 182.475 311.548C189.062 300.973 193.177 268.9 194.411 254.185C189.821 236.362 190.034 214.559 190.714 205.885L193.948 128.634L208.568 130.76C210.04 121.206 198.956 119.957 193.23 120.526L194.291 98.4155C198.056 85.9326 199.194 62.2428 195.857 55.9091C194.924 54.1386 197.982 40.9733 195.458 37.8442C188.287 28.9519 178.786 29.0234 174.69 28.6157C152.131 20.4092 123.357 19.6609 98.0546 25.7278C88.609 24.6411 77.2795 33.12 75.6837 36.6842L76.0234 52.6884C71.9904 57.5602 73.2595 81.6822 74.3981 93.1341L72.7794 116.959C64.104 115.656 57.2565 117.164 57.9754 125.271L72.6112 123.758C72.0168 143.833 70.754 188.158 70.4586 204.86C70.1633 221.562 66.0319 242.111 64.0031 250.298Z" fill="#2F58EB"/>
<path id="Vector 6" d="M64.0031 250.298C63.8766 266.121 68.9094 294.276 71.4417 306.375C77.9635 322.201 174.243 324.766 182.475 311.548C189.062 300.973 193.177 268.9 194.411 254.185C189.821 236.362 190.034 214.559 190.714 205.885L193.948 128.634L208.568 130.76C210.04 121.206 198.956 119.957 193.23 120.526L194.291 98.4155C198.056 85.9327 199.194 62.2428 195.857 55.9091C194.924 54.1386 197.982 40.9734 195.458 37.8442C188.287 28.9519 178.786 29.0234 174.69 28.6157C164.314 26.8073 157.301 31.4216 175.926 58.9096C190.827 80.8999 160.301 127.176 143.176 147.566C150.715 166.396 160.26 209.14 138.135 229.48C110.479 254.904 77.4354 211.211 81.7812 252.576C85.2578 285.669 71.3777 264.846 64.0031 250.298Z" fill="#293BDC"/>
<g id="Vector 3">
<path d="M91.5206 194.791C88.4291 215.221 82.3272 256.37 82.6517 257.525C77.8062 247.668 76.6826 225.79 76.7265 216.084L79.6638 128.529L89.9378 165.113C91.4519 170.505 91.6239 187.145 91.5206 194.791Z" fill="#D2F8FB"/>
<path d="M183.823 210.936C183.602 223.463 177.851 250.698 175.004 262.751C174.214 245.142 172.514 205.803 172.039 189.317C171.565 172.832 181.814 143.986 186.998 131.624C186.032 152.842 184.045 198.41 183.823 210.936Z" fill="#D2F8FB"/>
<path d="M87.1127 273.411L90.657 249.045C130.437 261.244 167.022 250.97 167.022 250.97C167.022 250.97 170.099 275.242 169.086 280.512C167.82 287.1 172.287 286.365 151.858 293.14C131.429 299.916 105.847 292.039 95.2138 289.313C86.7073 287.131 86.2687 277.802 87.1127 273.411Z" fill="#D2F8FB"/>
</g>
<g id="Vector 5">
<path d="M183.823 210.936C183.602 223.463 177.851 250.698 175.004 262.751C174.214 245.142 172.514 205.803 172.039 189.317C171.565 172.832 181.575 191.833 181.575 191.833C181.575 191.833 184.045 198.41 183.823 210.936Z" fill="#B0E6EA"/>
<path d="M87.1127 273.411C87.1127 273.411 89.0218 276.51 123.394 269.454C157.767 262.398 167.022 250.97 167.022 250.97C167.022 250.97 170.099 275.242 169.086 280.512C167.82 287.1 172.287 286.365 151.858 293.14C131.429 299.916 105.847 292.039 95.2138 289.313C86.7073 287.131 86.2687 277.802 87.1127 273.411Z" fill="#B0E6EA"/>
</g>
<path id="Vector 2" d="M103.139 101.162C68.7967 102.777 94.1086 154.075 94.1086 154.075C136.47 142.178 170.608 156.481 170.608 156.481C170.608 156.481 196.86 107.562 165.079 103.503C135.299 97.3245 125.18 100.126 103.139 101.162Z" fill="#CEF3F5"/>
<path id="Vector 4" d="M103.139 101.162C68.7967 102.777 121.207 130.365 121.207 130.365C163.569 118.469 170.608 156.481 170.608 156.481C170.608 156.481 196.86 107.562 165.079 103.503C135.299 97.3245 125.18 100.126 103.139 101.162Z" fill="#BCE6E9"/>
<ellipse id="Ellipse 1" cx="88.7777" cy="35.3994" rx="10.5" ry="3.5" transform="rotate(-25.8814 88.7777 35.3994)" fill="#D9D9D9"/>
<ellipse id="Ellipse 3" cx="171.337" cy="310.719" rx="7.99171" ry="2.6639" transform="rotate(-15.497 171.337 310.719)" fill="#D9D9D9"/>
<ellipse id="Ellipse 4" cx="82.6168" cy="305.964" rx="7.99171" ry="2.6639" transform="rotate(23.6411 82.6168 305.964)" fill="#D9D9D9"/>
<ellipse id="Ellipse 2" cx="181.555" cy="38.1642" rx="10.5" ry="3.5" transform="rotate(20.723 181.555 38.1642)" fill="#D9D9D9"/>
</g>
</svg>
